<svg xmlns="http://www.w3.org/2000/svg" width="24" height="24" viewBox="0 0 24 24"><rect width="24" height="24" fill="none"/><g transform="translate(4 4)"><circle cx="4" cy="4" r="4" transform="translate(4)" fill="none" stroke="#979797" stroke-miterlimit="10" stroke-width="1.5"/><g transform="translate(4.868 7.281)" fill="none" stroke-miterlimit="10"><path d="M0,.57A17.63,17.63,0,0,1,3.132,0a17.085,17.085,0,0,1,3.1.57L3.552,4.8a.5.5,0,0,1-.843,0Z" stroke="none"/><path d="M 3.131585836410522 1.499995470046997 C 2.959667682647705 1.499995470046997 2.710383892059326 1.528576135635376 2.424205780029297 1.57442307472229 L 3.12496280670166 2.668999671936035 L 3.819957494735718 1.572008371353149 C 3.542860269546509 1.527586460113525 3.300784349441528 1.499995470046997 3.131585836410522 1.499995470046997 M 3.131585836410522 -4.291534423828125e-06 C 4.144725799560547 -4.291534423828125e-06 6.230576038360596 0.5698456764221191 6.230576038360596 0.5698456764221191 L 3.551745891571045 4.798155784606934 C 3.453621864318848 4.953037738800049 3.291491746902466 5.030565738677979 3.129355192184448 5.030565738677979 C 2.968008279800415 5.030565738677979 2.806655168533325 4.953819274902344 2.70827579498291 4.800155639648438 L -4.291534423828125e-06 0.5698456764221191 C -4.291534423828125e-06 0.5698456764221191 2.118435859680176 -4.291534423828125e-06 3.131585836410522 -4.291534423828125e-06 Z" stroke="none" fill="#979797"/></g><g transform="translate(5.511 19.13)" fill="none" stroke-miterlimit="10"><path d="M.206-3.154A1,1,0,0,0,.431-2.125l1.357,1.4a1,1,0,0,0,1.42.017l1.433-1.41a1,1,0,0,0,.237-1.06L2.97-8.332a.5.5,0,0,0-.94.007Z" stroke="none"/><path d="M 2.514958143234253 -2.129436492919922 L 3.358102560043335 -2.958934545516968 L 2.523282766342163 -5.215160846710205 L 1.723377704620361 -2.946627616882324 L 2.514958143234253 -2.129436492919922 M 2.506489515304565 -0.4196240305900574 C 2.245330810546875 -0.4196397364139557 1.984343290328979 -0.5213107466697693 1.788139700889587 -0.7238619327545166 L 0.4306497275829315 -2.125272035598755 C 0.1667797267436981 -2.397671937942505 0.0797097235918045 -2.795902013778687 0.2058297246694565 -3.153571844100952 L 2.029099702835083 -8.324361801147461 C 2.107446670532227 -8.546545028686523 2.304094552993774 -8.658089637756348 2.50080132484436 -8.658089637756348 C 2.694836854934692 -8.658089637756348 2.888929843902588 -8.54954719543457 2.969569683074951 -8.331591606140137 L 4.877079486846924 -3.176251888275146 C 5.013629913330078 -2.807191848754883 4.921039581298828 -2.392361879348755 4.640529632568359 -2.116381883621216 L 3.207729816436768 -0.7067719101905823 C 3.012892484664917 -0.5150895118713379 2.759612560272217 -0.4196088314056396 2.506489515304565 -0.4196240305900574 Z" stroke="none" fill="#979797"/></g><path d="M16,8A8,8,0,0,0,0,8" transform="translate(0 8)" fill="none" stroke="#979797" stroke-linecap="round" stroke-linejoin="round" stroke-miterlimit="10" stroke-width="1.5"/></g></svg>