<svg xmlns="http://www.w3.org/2000/svg" width="24" height="24" viewBox="0 0 24 24"><rect width="24" height="24" fill="none"/><g transform="translate(2 0.5)"><g transform="translate(1 11)" fill="none" stroke-miterlimit="10"><path d="M0,0A48.274,48.274,0,0,0,9.029,1,47.273,47.273,0,0,0,18,0V8.5A1.5,1.5,0,0,1,16.5,10H1.5A1.5,1.5,0,0,1,0,8.5Z" stroke="none"/><path d="M 1.5 1.809516906738281 L 1.5 8.5 L 16.5 8.5 L 16.5 1.81275749206543 C 14.7275218963623 2.113864421844482 11.89565849304199 2.5 9.028949737548828 2.5 C 6.151449203491211 2.5 3.287083625793457 2.110907554626465 1.5 1.809516906738281 M 0 0 C 0 0 4.542869567871094 1 9.028949737548828 1 C 13.51502990722656 1 18 0 18 0 L 18 8.5 C 18 9.32843017578125 17.32843017578125 10 16.5 10 L 1.5 10 C 0.67156982421875 10 0 9.32843017578125 0 8.5 L 0 0 Z" stroke="none" fill="#fff"/></g><g transform="translate(7 0.5)" fill="none" stroke="#fff" stroke-miterlimit="10" stroke-width="1.5"><rect width="6" height="4.5" rx="1.5" stroke="none"/><rect x="0.75" y="0.75" width="4.5" height="3" rx="0.75" fill="none"/></g><g transform="translate(0 3.5)" fill="none" stroke-miterlimit="10"><path d="M0,1.5A1.5,1.5,0,0,1,1.5,0h17A1.5,1.5,0,0,1,20,1.5V7.642a1.5,1.5,0,0,1-1.351,1.493L10,10,1.351,9.135A1.5,1.5,0,0,1,0,7.643Z" stroke="none"/><path d="M 1.5 1.5 L 1.5 7.642580032348633 L 9.995719909667969 8.492519378662109 L 18.5 7.642459869384766 L 18.5 1.5 L 1.5 1.5 M 1.5 0 L 18.5 0 C 19.32843017578125 0 20 0.67156982421875 20 1.5 L 20 7.642459869384766 C 20 8.41310977935791 19.41601943969727 9.058369636535645 18.64918899536133 9.13502025604248 L 9.995639801025391 10 L 1.350679397583008 9.135129928588867 C 0.5839099884033203 9.058420181274414 0 8.413180351257324 0 7.642580032348633 L 0 1.5 C 0 0.67156982421875 0.67156982421875 0 1.5 0 Z" stroke="none" fill="#fff"/></g></g></svg>