<svg width="24" height="24" viewBox="0 0 24 24" fill="none" xmlns="http://www.w3.org/2000/svg">
<mask id="mask0" mask-type="alpha" maskUnits="userSpaceOnUse" x="3" y="3" width="18" height="19">
<path fill-rule="evenodd" clip-rule="evenodd" d="M7.25 8C7.25 5.37665 9.37665 3.25 12 3.25C14.6234 3.25 16.75 5.37665 16.75 8C16.75 9.5233 16.0329 10.8791 14.918 11.7483C15.5639 11.9768 16.1751 12.2789 16.7413 12.6447C16.1095 12.7926 15.5195 13.0495 14.9924 13.3944C14.0802 12.9805 13.067 12.75 12 12.75C7.99594 12.75 4.75 15.9959 4.75 20C4.75 20.4142 4.41421 20.75 4 20.75C3.58579 20.75 3.25 20.4142 3.25 20C3.25 16.1907 5.68424 12.9499 9.08205 11.7483C7.96706 10.8791 7.25 9.5233 7.25 8ZM15.25 8C15.25 9.79493 13.7949 11.25 12 11.25C10.2051 11.25 8.75 9.79493 8.75 8C8.75 6.20507 10.2051 4.75 12 4.75C13.7949 4.75 15.25 6.20507 15.25 8ZM18.384 21.808C18.28 21.9093 18.1453 21.96 17.98 21.96C17.8147 21.96 17.68 21.9093 17.576 21.808C17.472 21.7067 17.42 21.5733 17.42 21.408V21.048C16.828 20.9733 16.3213 20.8 15.9 20.528C15.804 20.4693 15.736 20.4027 15.696 20.328C15.656 20.2533 15.636 20.1547 15.636 20.032C15.636 19.872 15.6827 19.7333 15.776 19.616C15.8693 19.4987 15.98 19.44 16.108 19.44C16.172 19.44 16.236 19.4507 16.3 19.472C16.364 19.4933 16.4467 19.5333 16.548 19.592C16.7827 19.72 17.0013 19.8107 17.204 19.864C17.4067 19.9173 17.6227 19.944 17.852 19.944C18.1347 19.944 18.3493 19.8973 18.496 19.804C18.6427 19.7107 18.716 19.5707 18.716 19.384C18.716 19.272 18.672 19.18 18.584 19.108C18.496 19.036 18.3867 18.9787 18.256 18.936C18.1253 18.8933 17.9347 18.84 17.684 18.776C17.284 18.6747 16.956 18.572 16.7 18.468C16.444 18.364 16.2227 18.2013 16.036 17.98C15.8493 17.7587 15.756 17.4613 15.756 17.088C15.756 16.6613 15.9053 16.2907 16.204 15.976C16.5027 15.6613 16.8973 15.4533 17.388 15.352V14.952C17.388 14.792 17.4413 14.66 17.548 14.556C17.6547 14.452 17.788 14.4 17.948 14.4C18.1133 14.4 18.248 14.4507 18.352 14.552C18.456 14.6533 18.508 14.7867 18.508 14.952V15.328C18.9507 15.3973 19.3827 15.5653 19.804 15.832C19.9 15.896 19.968 15.9667 20.008 16.044C20.048 16.1213 20.068 16.216 20.068 16.328C20.068 16.488 20.02 16.6267 19.924 16.744C19.828 16.8613 19.716 16.92 19.588 16.92C19.524 16.92 19.4627 16.9093 19.404 16.888C19.3453 16.8667 19.26 16.8267 19.148 16.768C19.1107 16.7467 19.028 16.7027 18.9 16.636C18.772 16.5693 18.6347 16.516 18.488 16.476C18.3413 16.436 18.1853 16.416 18.02 16.416C17.78 16.416 17.5853 16.468 17.436 16.572C17.2867 16.676 17.212 16.816 17.212 16.992C17.212 17.1627 17.2973 17.2907 17.468 17.376C17.6387 17.4613 17.908 17.5467 18.276 17.632C18.6707 17.7227 18.9947 17.8187 19.248 17.92C19.5013 18.0213 19.72 18.184 19.904 18.408C20.088 18.632 20.18 18.9333 20.18 19.312C20.18 19.744 20.032 20.112 19.736 20.416C19.44 20.72 19.0413 20.92 18.54 21.016V21.408C18.54 21.5733 18.488 21.7067 18.384 21.808Z" fill="white"/>
</mask>
<g mask="url(#mask0)">
<rect width="24" height="24" fill="black" fill-opacity="0.7"/>
</g>
</svg>
