<svg width="24" height="24" viewBox="0 0 24 24" fill="none" xmlns="http://www.w3.org/2000/svg">
<mask id="mask0" mask-type="alpha" maskUnits="userSpaceOnUse" x="3" y="2" width="18" height="20">
<path fill-rule="evenodd" clip-rule="evenodd" d="M12 2.5C9.37665 2.5 7.25 4.62665 7.25 7.25C7.25 8.7733 7.96706 10.1291 9.08205 10.9983C5.68424 12.1999 3.25 15.4407 3.25 19.25C3.25 19.6642 3.58579 20 4 20C4.41421 20 4.75 19.6642 4.75 19.25C4.75 16.0553 6.81635 13.3432 9.68545 12.3773L11.1373 14.645L9.7165 18.6743C9.59039 19.0319 9.67745 19.4302 9.94132 19.7026L11.2988 21.104C11.6535 21.4702 12.2202 21.5069 12.6173 21.2082L12.7184 21.1211L14.1512 19.7115C14.4317 19.4355 14.5243 19.0207 14.3878 18.6516L12.8863 14.5937L14.2947 12.3706C17.1741 13.3307 19.25 16.0479 19.25 19.25C19.25 19.6642 19.5858 20 20 20C20.4142 20 20.75 19.6642 20.75 19.25C20.75 15.4407 18.3158 12.1999 14.918 10.9983C16.0329 10.1291 16.75 8.7733 16.75 7.25C16.75 4.62665 14.6234 2.5 12 2.5ZM12 10.5C13.7949 10.5 15.25 9.04493 15.25 7.25C15.25 5.45507 13.7949 4 12 4C10.2051 4 8.75 5.45507 8.75 7.25C8.75 9.04493 10.2051 10.5 12 10.5ZM11.9744 13.171C11.9871 13.1701 11.9997 13.1696 12.0122 13.1696L12.693 12.095L12.5369 12.0729C12.3783 12.0521 12.2377 12.0391 12.1157 12.0339L12 12.0313C11.8901 12.0313 11.7609 12.0391 11.6129 12.0548L11.286 12.097L11.9744 13.171ZM11.234 18.8829L12.025 19.6989L12.868 18.8699L12.034 16.6138L11.234 18.8829Z" fill="white"/>
</mask>
<g mask="url(#mask0)">
<rect width="24" height="24" fill="black" fill-opacity="0.7"/>
</g>
</svg>
