<svg width="24" height="24" viewBox="0 0 24 24" fill="none" xmlns="http://www.w3.org/2000/svg">
<mask id="mask0" mask-type="alpha" maskUnits="userSpaceOnUse" x="1" y="4" width="22" height="16">
<path fill-rule="evenodd" clip-rule="evenodd" d="M3.5 4.25H20.5C21.7426 4.25 22.75 5.25736 22.75 6.5V17.5C22.75 18.7426 21.7426 19.75 20.5 19.75H3.5C2.25736 19.75 1.25 18.7426 1.25 17.5V6.5C1.25 5.25736 2.25736 4.25 3.5 4.25ZM20.5 5.75H3.5C3.08579 5.75 2.75 6.08579 2.75 6.5V17.5C2.75 17.9142 3.08579 18.25 3.5 18.25H20.5C20.9142 18.25 21.25 17.9142 21.25 17.5V6.5C21.25 6.08579 20.9142 5.75 20.5 5.75ZM9.0511 11.3993C9.47553 11.08 9.75 10.572 9.75 10C9.75 9.0335 8.9665 8.25 8 8.25C7.0335 8.25 6.25 9.0335 6.25 10C6.25 10.572 6.52447 11.08 6.9489 11.3993C5.38945 11.8538 4.25 13.2938 4.25 15C4.25 15.4142 4.58579 15.75 5 15.75C5.41421 15.75 5.75 15.4142 5.75 15C5.75 13.7574 6.75736 12.75 8 12.75C9.24264 12.75 10.25 13.7574 10.25 15L10.2568 15.1018C10.3065 15.4678 10.6203 15.75 11 15.75C11.4142 15.75 11.75 15.4142 11.75 15C11.75 13.2938 10.6105 11.8538 9.0511 11.3993ZM18.25 9.5C18.6642 9.5 19 9.83579 19 10.25C19 10.6642 18.6642 11 18.25 11H14.25C13.8358 11 13.5 10.6642 13.5 10.25C13.5 9.83579 13.8358 9.5 14.25 9.5H18.25ZM19 13.25C19 12.8358 18.6642 12.5 18.25 12.5H14.25C13.8358 12.5 13.5 12.8358 13.5 13.25C13.5 13.6642 13.8358 14 14.25 14H18.25C18.6642 14 19 13.6642 19 13.25Z" fill="white"/>
</mask>
<g mask="url(#mask0)">
<rect width="24" height="24" fill="black" fill-opacity="0.7"/>
</g>
</svg>
