<svg width="48" height="48" viewBox="0 0 48 48" fill="none" xmlns="http://www.w3.org/2000/svg">
<mask id="mask0" mask-type="alpha" maskUnits="userSpaceOnUse" x="3" y="7" width="42" height="34">
<path fill-rule="evenodd" clip-rule="evenodd" d="M4 7.35715H44C44.355 7.35715 44.6429 7.64496 44.6429 8V27.5217V40C44.6429 40.3107 44.4225 40.5699 44.1296 40.6298C44.1156 40.6327 44.1015 40.6351 44.0872 40.637C44.0587 40.6409 44.0296 40.6429 44.0001 40.6429H44H4C3.71431 40.6429 3.47214 40.4565 3.38844 40.1987C3.38431 40.186 3.38057 40.1731 3.37723 40.1601L3.37361 40.1452C3.36922 40.1262 3.36568 40.1068 3.36302 40.0872L3.36302 40.0872C3.35915 40.0587 3.35715 40.0296 3.35715 40V30.9771V8C3.35715 7.64496 3.64496 7.35715 4 7.35715ZM43.3569 8.64257V26.0367L36.4238 19.5312L36.3443 19.4676C36.1223 19.3171 35.8251 19.3189 35.6031 19.482L32.8791 21.4842L32.8067 21.5461C32.5841 21.7667 32.5507 22.1229 32.7419 22.383L32.8038 22.4554C33.0244 22.678 33.3805 22.7114 33.6406 22.5202L35.9331 20.8346L43.3569 27.7997L43.3569 39.3566H4.64228L4.64229 31.2763L12.3163 24.7989L21.6061 30.8489L21.6931 30.8965C21.9021 30.9906 22.1489 30.967 22.3376 30.8282L26.4755 27.7868L26.5479 27.7249C26.7705 27.5043 26.8039 27.1481 26.6127 26.8881L26.5509 26.8156C26.3303 26.593 25.9741 26.5596 25.714 26.7508L21.9343 29.5286L12.6177 23.4613L12.536 23.4161C12.3121 23.3128 12.0449 23.3461 11.8523 23.5087L4.64228 29.5938V8.64257H43.3569ZM14 16C14 17.1046 13.1046 18 12 18C10.8954 18 10 17.1046 10 16C10 14.8954 10.8954 14 12 14C13.1046 14 14 14.8954 14 16Z" fill="white"/>
</mask>
<g mask="url(#mask0)">
<rect width="48" height="48" fill="black" fill-opacity="0.54"/>
</g>
</svg>
