<svg width="24" height="24" viewBox="0 0 24 24" fill="none" xmlns="http://www.w3.org/2000/svg">
<mask id="mask0" mask-type="alpha" maskUnits="userSpaceOnUse" x="1" y="0" width="23" height="24">
<path fill-rule="evenodd" clip-rule="evenodd" d="M14 1.5C14 0.671573 13.3284 0 12.5 0H9.5C8.67157 0 8 0.671573 8 1.5V3H2.5C1.67157 3 1 3.67157 1 4.5V10.7554C1 11.3995 1.40922 11.9613 2 12.1698V19C2 19.8284 2.67157 20.5 3.5 20.5L12.5442 20.5004C13.4923 22.5657 15.5787 24 18 24C21.3137 24 24 21.3137 24 18C24 15.3878 22.3307 13.1655 20.0006 12.3416L20.0006 12.1692C20.5911 11.9606 21 11.399 21 10.7551V4.5C21 3.67157 20.3284 3 19.5 3H14V1.5ZM3.5 19H12.083C12.0284 18.6748 12 18.3407 12 18C12 15.816 13.1669 13.9045 14.9113 12.855L14.9274 12.8454C13.6279 12.9476 12.3289 12.9991 11.0302 13L10.9956 13C8.49674 13 5.99786 12.8125 3.49902 12.4375L3.5 19ZM18 22.5C16.44 22.5 15.0654 21.7062 14.2581 20.5005C13.7793 19.7854 13.5 18.9253 13.5 18C13.5 15.5147 15.5147 13.5 18 13.5C18.7189 13.5 19.3984 13.6686 20.0012 13.9684C21.4823 14.705 22.5 16.2336 22.5 18C22.5 20.4853 20.4853 22.5 18 22.5ZM12.5 3V1.5H9.5V3H12.5ZM19.5 10.6084L19.5 4.5H12.5H9.5H2.5V10.6071C5.35989 11.2024 8.20287 11.5 11.029 11.5C13.853 11.5 16.6766 11.2028 19.5 10.6084ZM19 16.25C19 15.8358 18.6642 15.5 18.25 15.5C17.8358 15.5 17.5 15.8358 17.5 16.25V18.25C17.5 18.6642 17.8358 19 18.25 19H19.5C19.9142 19 20.25 18.6642 20.25 18.25C20.25 17.8358 19.9142 17.5 19.5 17.5H19V16.25Z" fill="white"/>
</mask>
<g mask="url(#mask0)">
<rect width="24" height="24" fill="black" fill-opacity="0.7"/>
</g>
</svg>
