<svg width="24" height="24" viewBox="0 0 24 24" fill="none" xmlns="http://www.w3.org/2000/svg">
<mask id="mask0" mask-type="alpha" maskUnits="userSpaceOnUse" x="3" y="3" width="18" height="18">
<path fill-rule="evenodd" clip-rule="evenodd" d="M20.75 12C20.75 7.16751 16.8325 3.25 12 3.25C8.51447 3.25 5.40432 5.30704 4.00725 8.43443C3.8383 8.81262 4.00793 9.25616 4.38612 9.42511C4.76432 9.59406 5.20786 9.42443 5.37681 9.04623C6.53464 6.45437 9.11158 4.75 12 4.75C16.0041 4.75 19.25 7.99594 19.25 12C19.25 16.0041 16.0041 19.25 12 19.25C10.1269 19.25 8.36781 18.5376 7.03246 17.2808L7.68262 16.7156C8.1347 16.3226 7.96637 15.5843 7.3886 15.4262L4.60894 14.6652C4.09275 14.5239 3.59891 14.9532 3.667 15.484L4.03369 18.3425C4.10991 18.9367 4.81755 19.2061 5.26964 18.8132L5.8972 18.2676C5.90998 18.2819 5.9234 18.2959 5.93746 18.3094C7.55605 19.865 9.70937 20.75 12 20.75C16.8325 20.75 20.75 16.8325 20.75 12ZM12 8C12.4142 8 12.75 8.33579 12.75 8.75V11.5H15C15.4142 11.5 15.75 11.8358 15.75 12.25C15.75 12.6642 15.4142 13 15 13H12.5C12.4123 13 12.3282 12.985 12.25 12.9573C12.1718 12.985 12.0877 13 12 13C11.5858 13 11.25 12.6642 11.25 12.25V8.75C11.25 8.33579 11.5858 8 12 8Z" fill="white"/>
</mask>
<g mask="url(#mask0)">
<rect width="24" height="24" fill="black" fill-opacity="0.7"/>
</g>
</svg>
