<svg width="24" height="24" viewBox="0 0 24 24" fill="none" xmlns="http://www.w3.org/2000/svg">
<mask id="mask0" mask-type="alpha" maskUnits="userSpaceOnUse" x="2" y="1" width="22" height="23">
<path fill-rule="evenodd" clip-rule="evenodd" d="M5 2C5 1.448 5.448 1 6 1C6.552 1 7 1.448 7 2V3H15V2C15 1.448 15.448 1 16 1C16.552 1 17 1.448 17 2V3H18C19.1 3 20 3.9 20 5V12.3414C22.3304 13.1651 24 15.3876 24 18C24 21.3137 21.3137 24 18 24C15.7792 24 13.8401 22.7934 12.8027 21H4C2.9 21 2 20.1 2 19V5C2 3.9 2.9 3 4 3H5V2ZM18.5 8V12.0205C18.3351 12.0069 18.1684 12 18 12C14.6863 12 12 14.6863 12 18C12 18.518 12.0656 19.0206 12.189 19.5H4.57143C3.98 19.5 3.5 19.0316 3.5 18.4545V8H18.5ZM13.5 18C13.5 15.5147 15.5147 13.5 18 13.5C20.4853 13.5 22.5 15.5147 22.5 18C22.5 20.4853 20.4853 22.5 18 22.5C15.5147 22.5 13.5 20.4853 13.5 18ZM19 16.25C19 15.8358 18.6642 15.5 18.25 15.5C17.8358 15.5 17.5 15.8358 17.5 16.25V18.25C17.5 18.6642 17.8358 19 18.25 19H19.5C19.9142 19 20.25 18.6642 20.25 18.25C20.25 17.8358 19.9142 17.5 19.5 17.5H19V16.25Z" fill="white"/>
</mask>
<g mask="url(#mask0)">
<rect width="24" height="24" fill="black" fill-opacity="0.7"/>
</g>
</svg>
