<svg xmlns="http://www.w3.org/2000/svg" xmlns:xlink="http://www.w3.org/1999/xlink" width="20" height="12" viewBox="0 0 20 12"><defs><clipPath id="a"><rect width="20" height="12" fill="none"/></clipPath><clipPath id="b"><path d="M1,12a1,1,0,0,1,0-2H19a1,1,0,0,1,0,2ZM1,7A1,1,0,0,1,1,5H14a1,1,0,0,1,0,2ZM1,2A1,1,0,0,1,1,0H19a1,1,0,0,1,0,2Z" transform="translate(2 6)" fill="none"/></clipPath><clipPath id="c"><rect width="24" height="24" fill="none"/></clipPath></defs><g clip-path="url(#a)"><path d="M1,12a1,1,0,0,1,0-2H19a1,1,0,0,1,0,2ZM1,7A1,1,0,0,1,1,5H14a1,1,0,0,1,0,2ZM1,2A1,1,0,0,1,1,0H19a1,1,0,0,1,0,2Z" fill="none"/><g transform="translate(-2 -6)" clip-path="url(#b)"><g clip-path="url(#c)"><rect width="24" height="24" fill="#10299c"/></g></g></g></svg>