<svg xmlns="http://www.w3.org/2000/svg" xmlns:xlink="http://www.w3.org/1999/xlink" width="24" height="24" viewBox="0 0 24 24"><defs><style>.a{fill:none;}.b{clip-path:url(#a);}.c{clip-path:url(#b);}.d{clip-path:url(#c);}.e{fill:#10299c;}</style><clipPath id="a"><rect class="a" width="24" height="24"/></clipPath><clipPath id="b"><path class="a" d="M.75,24a.75.75,0,0,1-.75-.75v-3.3a.75.75,0,0,1,.75-.75h22.5a.75.75,0,0,1,.75.75v3.3a.75.75,0,0,1-.75.75Zm6-9.6A.75.75,0,0,1,6,13.651v-3.3A.751.751,0,0,1,6.75,9.6h16.5a.751.751,0,0,1,.75.751v3.3a.75.75,0,0,1-.75.75Zm-6-9.6A.75.75,0,0,1,0,4.051V.751A.75.75,0,0,1,.75,0h22.5A.75.75,0,0,1,24,.751v3.3a.75.75,0,0,1-.75.75Z" transform="translate(0 0)"/></clipPath><clipPath id="c"><rect class="a" width="95.995" height="76.803"/></clipPath></defs><g class="b" transform="translate(0 0)"><path class="a" d="M.75,24a.75.75,0,0,1-.75-.75v-3.3a.75.75,0,0,1,.75-.75h22.5a.75.75,0,0,1,.75.75v3.3a.75.75,0,0,1-.75.75Zm6-9.6A.75.75,0,0,1,6,13.651v-3.3A.751.751,0,0,1,6.75,9.6h16.5a.751.751,0,0,1,.75.751v3.3a.75.75,0,0,1-.75.75Zm-6-9.6A.75.75,0,0,1,0,4.051V.751A.75.75,0,0,1,.75,0h22.5A.75.75,0,0,1,24,.751v3.3a.75.75,0,0,1-.75.75Z" transform="translate(0 0)"/><g class="c"><g class="d" transform="translate(-4 -26.401)"><rect class="e" width="95.995" height="76.803"/></g></g></g></svg>