<svg xmlns="http://www.w3.org/2000/svg" xmlns:xlink="http://www.w3.org/1999/xlink" width="39" height="27.75" viewBox="0 0 39 27.75"><defs><clipPath id="a"><rect width="39" height="27.75" fill="none"/></clipPath><clipPath id="b"><rect width="19.5" height="19.5" fill="none"/></clipPath><clipPath id="c"><path d="M5.012,19.5h0a1.681,1.681,0,0,1-.806-.208l-.128-.078a1.862,1.862,0,0,1-.814-1.538V15.66H2.25A2.313,2.313,0,0,1,.005,13.438L0,13.277V2.384A2.323,2.323,0,0,1,2.25,0h15A2.323,2.323,0,0,1,19.5,2.384V13.41a2.253,2.253,0,0,1-2.25,2.25H8.136L6.521,18.595A1.742,1.742,0,0,1,5.012,19.5ZM2.25,1.5a.826.826,0,0,0-.75.884V13.277a.826.826,0,0,0,.75.884H4.765v3.506a.366.366,0,0,0,.144.3A.2.2,0,0,0,5.016,18a.232.232,0,0,0,.195-.133L7.25,14.161h10A.751.751,0,0,0,18,13.41V2.384a.826.826,0,0,0-.75-.884Z" transform="translate(2.25 2.25)" fill="none"/></clipPath><clipPath id="d"><rect width="24" height="24" fill="none"/></clipPath><clipPath id="e"><rect width="18" height="18" fill="none"/></clipPath><clipPath id="f"><rect width="18" height="18" rx="9" fill="#d8d8d8"/></clipPath><clipPath id="h"><rect width="39" height="18" fill="none"/></clipPath></defs><g clip-path="url(#a)"><g transform="translate(1.247 8.25)" clip-path="url(#b)"><path d="M5.012,19.5h0a1.681,1.681,0,0,1-.806-.208l-.128-.078a1.862,1.862,0,0,1-.814-1.538V15.66H2.25A2.313,2.313,0,0,1,.005,13.438L0,13.277V2.384A2.323,2.323,0,0,1,2.25,0h15A2.323,2.323,0,0,1,19.5,2.384V13.41a2.253,2.253,0,0,1-2.25,2.25H8.136L6.521,18.595A1.742,1.742,0,0,1,5.012,19.5ZM2.25,1.5a.826.826,0,0,0-.75.884V13.277a.826.826,0,0,0,.75.884H4.765v3.506a.366.366,0,0,0,.144.3A.2.2,0,0,0,5.016,18a.232.232,0,0,0,.195-.133L7.25,14.161h10A.751.751,0,0,0,18,13.41V2.384a.826.826,0,0,0-.75-.884Z" transform="translate(0 0)" fill="none"/><g transform="translate(-2.25 -2.25)" clip-path="url(#c)"><g clip-path="url(#d)"><rect width="24" height="24" fill="rgba(0,0,0,0.7)"/></g></g></g><g transform="translate(11)" clip-path="url(#e)"><rect width="18" height="18" rx="9" fill="#d8d8d8"/><g clip-path="url(#f)"><g clip-path="url(#e)"><rect width="18" height="18" fill="#10299c"/></g></g></g><g clip-path="url(#h)"><text fill="#fff" font-size="12" font-family="OpenSans-Semibold, Open Sans" font-weight="600"><tspan x="16.075" y="13">4</tspan></text></g></g></svg>