<svg height="600pt" viewBox="0 0 600 600" width="600pt" xmlns="http://www.w3.org/2000/svg"><path d="m590 100c5.523438 0 10-4.476562 10-10v-40c-.035156-27.601562-22.398438-49.9648438-50-50h-420c-27.601562.0351562-49.964844 22.398438-50 50v80h-50c-16.566406 0-30 13.433594-30 30v280c0 16.566406 13.433594 30 30 30h50v30h-70c-5.523438 0-10 4.476562-10 10v40c.0351562 27.601562 22.398438 49.964844 50 50h420c27.601562-.035156 49.964844-22.398438 50-50v-80h50c16.566406 0 30-13.433594 30-30v-280c0-16.566406-13.433594-30-30-30h-50v-30zm-10-50v30h-60v-30c0-16.566406 13.433594-30 30-30s30 13.433594 30 30zm-530 530c-16.566406 0-30-13.433594-30-30v-30h400v30c.039062 10.855469 3.640625 21.398438 10.257812 30zm450-30c0 16.566406-13.433594 30-30 30s-30-13.433594-30-30v-40c0-5.523438-4.476562-10-10-10h-330v-30h400zm80-390v280c0 5.523438-4.476562 10-10 10h-540c-5.523438 0-10-4.476562-10-10v-280c0-5.523438 4.476562-10 10-10h540c5.523438 0 10 4.476562 10 10zm-480-30v-80c0-16.566406 13.433594-30 30-30h380.257812c-6.617187 8.601562-10.21875 19.144531-10.257812 30v80zm0 0"/><path d="m300 430c71.796875 0 130-58.203125 130-130s-58.203125-130-130-130-130 58.203125-130 130c.082031 71.761719 58.238281 129.917969 130 130zm0-240c60.75 0 110 49.25 110 110s-49.25 110-110 110-110-49.25-110-110c.074219-60.722656 49.277344-109.925781 110-110zm0 0"/><path d="m247.070312 367.070312 52.929688-52.929687 52.929688 52.929687 14.140624-14.140624-52.929687-52.929688 52.929687-52.929688-14.140624-14.140624-52.929688 52.929687-52.929688-52.929687-14.140624 14.140624 52.929687 52.929688-52.929687 52.929688zm0 0"/><path d="m60 190h20v20h-20zm0 0"/><path d="m90 190h60v20h-60zm0 0"/><path d="m60 220h20v20h-20zm0 0"/><path d="m90 220h60v20h-60zm0 0"/><path d="m450 360h20v20h-20zm0 0"/><path d="m480 360h60v20h-60zm0 0"/><path d="m450 390h20v20h-20zm0 0"/><path d="m480 390h60v20h-60zm0 0"/></svg>