<?xml version="1.0" encoding="iso-8859-1"?>
<!-- Generator: Adobe Illustrator 19.0.0, SVG Export Plug-In . SVG Version: 6.00 Build 0)  -->
<svg version="1.1" id="Capa_1" xmlns="http://www.w3.org/2000/svg" xmlns:xlink="http://www.w3.org/1999/xlink" x="0px" y="0px"
	 viewBox="0 0 512 512" style="enable-background:new 0 0 512 512;" xml:space="preserve">
<g>
	<g>
		<path d="M370.948,407.399c-0.265-0.277-0.53-0.555-0.799-0.829c-3.866-3.944-10.197-4.009-14.142-0.145
			c-3.945,3.865-4.01,10.196-0.146,14.142c0.202,0.206,0.401,0.413,0.6,0.622c1.966,2.065,4.603,3.105,7.245,3.105
			c2.476,0,4.957-0.914,6.893-2.757C374.599,417.729,374.755,411.4,370.948,407.399z"/>
	</g>
</g>
<g>
	<g>
		<path d="M235.859,292.87c-1.859-1.86-4.43-2.931-7.069-2.931c-2.63,0-5.21,1.07-7.07,2.931c-1.86,1.859-2.93,4.439-2.93,7.069
			c0,2.641,1.069,5.21,2.93,7.08c1.87,1.86,4.44,2.931,7.07,2.931s5.21-1.07,7.069-2.931c1.87-1.87,2.931-4.439,2.931-7.08
			C238.79,297.309,237.729,294.74,235.859,292.87z"/>
	</g>
</g>
<g>
	<g>
		<path d="M290.53,292.87c-1.86-1.86-4.44-2.931-7.07-2.931s-5.21,1.07-7.07,2.931c-1.859,1.87-2.93,4.439-2.93,7.069
			c0,2.641,1.07,5.21,2.93,7.08c1.86,1.861,4.44,2.92,7.07,2.92s5.21-1.06,7.07-2.92c1.859-1.87,2.93-4.439,2.93-7.08
			C293.46,297.309,292.39,294.74,290.53,292.87z"/>
	</g>
</g>
<g>
	<g>
		<path d="M273.235,320.392c-3.906-3.904-10.236-3.904-14.143,0c-1.114,1.115-2.416,1.281-3.093,1.281
			c-0.677,0-1.979-0.166-3.093-1.281c-3.906-3.904-10.236-3.904-14.143,0c-3.905,3.905-3.905,10.237,0,14.143
			c4.752,4.752,10.994,7.127,17.235,7.127c6.241,0,12.485-2.375,17.237-7.127C277.14,330.63,277.14,324.298,273.235,320.392z"/>
	</g>
</g>
<g>
	<g>
		<path d="M256,0c-27.57,0-50,22.43-50,50c0,24.146,17.205,44.348,40,48.994v45.993c0,5.522,4.478,10,10,10c5.522,0,10-4.478,10-10
			V98.994c22.795-4.646,40-24.847,40-48.994C306,22.43,283.57,0,256,0z M256.167,79.996c-0.056-0.001-0.111-0.008-0.167-0.008
			s-0.111,0.008-0.167,0.008C239.368,79.905,226,66.486,226,50c0-16.542,13.458-30,30-30s30,13.458,30,30
			C286,66.486,272.632,79.905,256.167,79.996z"/>
	</g>
</g>
<g>
	<g>
		<path d="M161.071,146.928l-29.394-29.394c5.215-7.893,8.262-17.338,8.262-27.486c0-27.57-22.43-50-50-50c-27.57,0-50,22.43-50,50
			s22.43,50.001,50,50.001c10.204,0,19.7-3.079,27.619-8.347l29.37,29.37C148.882,163.023,151.44,164,154,164
			s5.118-0.977,7.071-2.929C164.976,157.166,164.976,150.834,161.071,146.928z M89.939,120.049c-16.542,0-30-13.458-30-30
			s13.458-30,30-30s30,13.458,30,30S106.481,120.049,89.939,120.049z"/>
	</g>
</g>
<g>
	<g>
		<path d="M462,206.138c-24.146,0-44.348,17.205-48.994,40H363c-5.522,0-10,4.478-10,10c0,5.522,4.478,10,10,10h50.006
			c4.646,22.795,24.847,40,48.994,40c27.57,0,50-22.43,50-50S489.57,206.138,462,206.138z M462,286.138c-16.542,0-30-13.458-30-30
			s13.458-30,30-30s30,13.458,30,30S478.542,286.138,462,286.138z"/>
	</g>
</g>
<g>
	<g>
		<path d="M149,246.138H98.994c-4.646-22.795-24.847-40-48.994-40c-27.57,0-50,22.43-50,50s22.43,50,50,50
			c24.146,0,44.348-17.205,48.994-40H149c5.522,0,10-4.478,10-10C159,250.616,154.522,246.138,149,246.138z M50,286.138
			c-16.542,0-30-13.458-30-30s13.458-30,30-30s30,13.458,30,30S66.542,286.138,50,286.138z"/>
	</g>
</g>
<g>
	<g>
		<path d="M341.109,170.89c-1.859-1.859-4.439-2.93-7.069-2.93s-5.21,1.07-7.07,2.93s-2.93,4.44-2.93,7.07s1.069,5.21,2.93,7.07
			c1.86,1.86,4.429,2.93,7.07,2.93c2.63,0,5.21-1.07,7.069-2.93c1.86-1.86,2.931-4.44,2.931-7.07S342.97,172.75,341.109,170.89z"/>
	</g>
</g>
<g>
	<g>
		<path d="M422,39.941c-27.57,0-50,22.43-50,50c0,10.191,3.071,19.675,8.328,27.588l-28.899,28.899
			c-3.905,3.905-3.905,10.237,0,14.143c1.953,1.952,4.511,2.929,7.071,2.929s5.118-0.977,7.071-2.929l28.912-28.912
			c7.899,5.228,17.356,8.282,27.517,8.282c27.57,0,50-22.43,50-50S449.57,39.941,422,39.941z M422,119.941
			c-16.542,0-30-13.458-30-30s13.458-30,30-30s30,13.458,30,30S438.542,119.941,422,119.941z"/>
	</g>
</g>
<g>
	<g>
		<path d="M502,492H390v-36.801c0-5.522-4.478-10-10-10c-5.522,0-10,4.478-10,10V492h-91.771l6.4-7.284
			c2.196-2.499,3.006-5.928,2.159-9.146l-18.878-71.748l13.318-13.318c4.931,5.396,11.581,9.25,19.208,10.66l29.074,5.375
			c0.615,0.114,1.227,0.169,1.83,0.169c4.728,0,8.932-3.368,9.821-8.184c1.004-5.432-2.584-10.647-8.015-11.651l-29.074-5.375
			c-6.89-1.274-11.891-7.284-11.891-14.29v-0.445c22.669-12.716,38.031-36.972,38.031-64.762v-42.733
			c0-40.922-33.292-74.214-74.214-74.214s-74.214,33.292-74.214,74.214v42.733c0,27.783,15.354,52.034,38.015,64.752v0.456
			c0,7.006-5,13.015-11.89,14.289l-29.061,5.374C145.909,392.963,122,421.698,122,455.198V492H10.263c-5.522,0-10,4.478-10,10
			c0,5.522,4.478,10,10,10H132h248h122c5.522,0,10-4.478,10-10C512,496.478,507.522,492,502,492z M256.127,387.321l-12.083-12.083
			c3.895,0.634,7.885,0.977,11.956,0.977c4.179,0,8.273-0.365,12.265-1.032L256.127,387.321z M256,205.054
			c29.211,0,53.101,23.225,54.176,52.178l-27.853-16.364c-4.211-2.474-9.594-1.544-12.729,2.199
			c-11.536,13.766-28.452,21.66-46.411,21.66h-21.396v-2.619v-2.84h-0.001C201.786,229.374,226.106,205.054,256,205.054z
			 M201.786,302.001v-17.274h21.396c21.022,0,40.97-8.131,55.912-22.561l31.119,18.283v21.552c0,29.894-24.32,54.214-54.214,54.214
			C226.105,356.215,201.786,331.895,201.786,302.001z M227.625,484.717l6.401,7.282H142v-36.801
			c0-23.857,17.027-44.322,40.487-48.66l29.061-5.374c7.693-1.422,14.394-5.33,19.337-10.8l13.453,13.453l-18.873,71.754
			C224.618,478.79,225.428,482.217,227.625,484.717z M256.13,486.852l-9.969-11.341l9.964-37.882l9.968,37.884L256.13,486.852z"/>
	</g>
</g>
<g>
	<g>
		<path d="M186.66,172.52c-1.86-1.859-4.44-2.93-7.07-2.93s-5.21,1.07-7.07,2.93c-1.859,1.86-2.93,4.44-2.93,7.07
			s1.07,5.21,2.93,7.07c1.86,1.86,4.44,2.93,7.07,2.93s5.21-1.07,7.07-2.93c1.859-1.86,2.93-4.44,2.93-7.07
			S188.52,174.38,186.66,172.52z"/>
	</g>
</g>
<g>
</g>
<g>
</g>
<g>
</g>
<g>
</g>
<g>
</g>
<g>
</g>
<g>
</g>
<g>
</g>
<g>
</g>
<g>
</g>
<g>
</g>
<g>
</g>
<g>
</g>
<g>
</g>
<g>
</g>
</svg>
