<svg height="512" viewBox="0 0 44 60" width="512" xmlns="http://www.w3.org/2000/svg"><g id="008---Gender-Equality-Symbol"><path id="Shape" d="m18 40c7.7319865 0 14-6.2680135 14-14s-6.2680135-14-14-14-14 6.2680135-14 14c.00826732 7.7285595 6.2714405 13.9917327 14 14zm0-26c6.627417 0 12 5.372583 12 12s-5.372583 12-12 12-12-5.372583-12-12c.00716485-6.624447 5.375553-11.9928352 12-12z"/><path id="Shape" d="m15 43.748v5.252h-4c-1.1045695 0-2 .8954305-2 2v2c0 1.1045695.8954305 2 2 2h4v3c0 1.1045695.8954305 2 2 2h2c1.1045695 0 2-.8954305 2-2v-3h4c1.1045695 0 2-.8954305 2-2v-2c0-1.1045695-.8954305-2-2-2h-4v-5.252c6.1027802-1.0431305 11.2427276-5.146204 13.6121233-10.8661701s1.6364262-12.2557924-1.9411233-17.3088299l5.329-5.329v1.756c0 1.1045695.8954305 2 2 2h2c1.1045695 0 2-.8954305 2-2v-10c0-1.1045695-.8954305-2-2-2h-10c-1.1045695 0-2 .8954305-2 2v2c0 1.1045695.8954305 2 2 2h1.756l-5.329 5.328c-11.627-8.328-28.427-.134-28.427 14.672-.00401101 8.7848769 6.33730667 16.287924 15 17.748zm12.9-30.314c.3982065.3157681.9699257.2826436 1.329-.077l7.65-7.65c.2861664-.28625155.3715538-.71677965.2162966-1.09057953-.1552573-.37379988-.5205366-.6171442-.9252966-.61642047h-4.17v-2h10v10h-2v-4.17c-.0000863-.4043959-.2437275-.76893405-.6173454-.92367798-.373618-.15474393-.8036603-.06922994-1.0896546.21667798l-7.65 7.65c-.3593624.3586756-.3929027.9297215-.078 1.328 3.5723357 4.5495233 4.4131583 10.672091 2.1995333 16.0162101-2.2136251 5.344119-7.1375077 9.0788478-12.8805333 9.7697899-.5038895.0588484-.8838736.4856858-.884.993v7.12c0 .5522847.4477153 1 1 1h5v2h-5c-.5522847 0-1 .4477153-1 1v4h-2v-4c0-.5522847-.4477153-1-1-1h-5v-2h5c.5522847 0 1-.4477153 1-1v-7.12c-.0001264-.5073142-.3801105-.9341516-.884-.993-8.05342468-.9494876-14.12055071-7.7777981-14.116-15.887 0-13.439 15.575-20.748 25.9-12.566z"/><path id="Shape" d="m13 33h10c1.6568542 0 3-1.3431458 3-3s-1.3431458-3-3-3h-10c-1.6568542 0-3 1.3431458-3 3s1.3431458 3 3 3zm0-4h10c.5522847 0 1 .4477153 1 1s-.4477153 1-1 1h-10c-.5522847 0-1-.4477153-1-1s.4477153-1 1-1z"/><path id="Shape" d="m13 25h10c1.6568542 0 2.9999999-1.3431458 2.9999999-3s-1.3431457-3-2.9999999-3h-10c-1.6568542 0-3 1.3431458-3 3s1.3431458 3 3 3zm0-4h10c.5522847 0 1 .4477153 1 1s-.4477153 1-1 1h-10c-.5522847 0-1-.4477153-1-1s.4477153-1 1-1z"/></g></svg>