<svg id="Capa_1" enable-background="new 0 0 512 512" height="512" viewBox="0 0 512 512" width="512" xmlns="http://www.w3.org/2000/svg"><g><path d="m81.188 158.937c-4.143 0-7.5 3.357-7.5 7.5s3.357 7.5 7.5 7.5c9.571 0 17.357 7.786 17.357 17.357 0 9.57-7.786 17.356-17.357 17.356s-17.357-7.786-17.357-17.356c0-1.98.328-3.918.976-5.761 1.374-3.908-.681-8.189-4.588-9.563-3.912-1.379-8.189.68-9.563 4.588-1.211 3.445-1.825 7.057-1.825 10.735 0 17.842 14.516 32.356 32.357 32.356s32.357-14.515 32.357-32.356-14.515-32.356-32.357-32.356z"/><path d="m181.702 158.937c-17.842 0-32.357 14.516-32.357 32.357s14.516 32.356 32.357 32.356 32.357-14.515 32.357-32.356-14.515-32.357-32.357-32.357zm0 49.713c-9.571 0-17.357-7.786-17.357-17.356 0-9.571 7.786-17.357 17.357-17.357s17.357 7.786 17.357 17.357c.001 9.57-7.786 17.356-17.357 17.356z"/><path d="m282.216 158.937c-17.842 0-32.357 14.516-32.357 32.357s14.516 32.356 32.357 32.356c17.843 0 32.358-14.515 32.358-32.356s-14.515-32.357-32.358-32.357zm0 49.713c-9.571 0-17.357-7.786-17.357-17.356 0-9.571 7.786-17.357 17.357-17.357s17.358 7.786 17.358 17.357c0 9.57-7.787 17.356-17.358 17.356z"/><path d="m382.73 223.65c17.842 0 32.357-14.515 32.357-32.356s-14.516-32.357-32.357-32.357c-17.843 0-32.358 14.516-32.358 32.357s14.516 32.356 32.358 32.356zm0-49.713c9.571 0 17.357 7.786 17.357 17.357 0 9.57-7.786 17.356-17.357 17.356s-17.358-7.786-17.358-17.356c0-9.571 7.787-17.357 17.358-17.357z"/><path d="m81.188 249.236c-17.842 0-32.357 14.515-32.357 32.356s14.516 32.357 32.357 32.357 32.357-14.516 32.357-32.357-14.515-32.356-32.357-32.356zm0 49.714c-9.571 0-17.357-7.786-17.357-17.357 0-9.57 7.786-17.356 17.357-17.356s17.357 7.786 17.357 17.356c.001 9.571-7.785 17.357-17.357 17.357z"/><path d="m181.702 249.236c-17.842 0-32.357 14.515-32.357 32.356s14.516 32.357 32.357 32.357 32.357-14.516 32.357-32.357-14.515-32.356-32.357-32.356zm0 49.714c-9.571 0-17.357-7.786-17.357-17.357 0-9.57 7.786-17.356 17.357-17.356s17.357 7.786 17.357 17.356c.001 9.571-7.786 17.357-17.357 17.357z"/><path d="m282.216 249.236c-17.842 0-32.357 14.515-32.357 32.356s14.516 32.357 32.357 32.357c17.843 0 32.358-14.516 32.358-32.357s-14.515-32.356-32.358-32.356zm0 49.714c-9.571 0-17.357-7.786-17.357-17.357 0-9.57 7.786-17.356 17.357-17.356s17.358 7.786 17.358 17.356c0 9.571-7.787 17.357-17.358 17.357z"/><path d="m382.73 313.95c17.842 0 32.357-14.516 32.357-32.357s-14.516-32.356-32.357-32.356c-17.843 0-32.358 14.515-32.358 32.356s14.516 32.357 32.358 32.357zm0-49.714c9.571 0 17.357 7.786 17.357 17.356 0 9.571-7.786 17.357-17.357 17.357s-17.358-7.786-17.358-17.357c0-9.57 7.787-17.356 17.358-17.356z"/><path d="m81.188 341.7c-17.842 0-32.357 14.515-32.357 32.356s14.516 32.356 32.357 32.356 32.357-14.515 32.357-32.356-14.515-32.356-32.357-32.356zm0 49.713c-9.571 0-17.357-7.786-17.357-17.356s7.786-17.357 17.357-17.357 17.357 7.786 17.357 17.356-7.785 17.357-17.357 17.357z"/><path d="m181.702 341.7c-17.842 0-32.357 14.515-32.357 32.356s14.516 32.356 32.357 32.356 32.357-14.515 32.357-32.356-14.515-32.356-32.357-32.356zm0 49.713c-9.571 0-17.357-7.786-17.357-17.356s7.786-17.356 17.357-17.356 17.357 7.786 17.357 17.356-7.786 17.356-17.357 17.356z"/><path d="m282.216 341.7c-17.842 0-32.357 14.515-32.357 32.356s14.516 32.356 32.357 32.356c17.843 0 32.358-14.515 32.358-32.356s-14.515-32.356-32.358-32.356zm0 49.713c-9.571 0-17.357-7.786-17.357-17.356s7.786-17.356 17.357-17.356 17.358 7.786 17.358 17.356-7.787 17.356-17.358 17.356z"/><path d="m462.656 340.998v-273.501c0-23.736-19.313-43.048-43.05-43.048h-9.838v-5.77c0-10.3-8.38-18.68-18.68-18.68h-10.235c-10.3 0-18.68 8.38-18.68 18.68v5.77h-53.757v-5.77c0-10.3-8.38-18.68-18.68-18.68h-10.235c-10.3 0-18.679 8.38-18.679 18.68v5.77h-53.758v-5.77c0-10.3-8.379-18.68-18.679-18.68h-10.235c-10.3 0-18.68 8.38-18.68 18.68v5.77h-53.757v-5.77c0-10.3-8.38-18.68-18.68-18.68h-10.233c-10.3.001-18.68 8.381-18.68 18.681v5.77h-9.838c-23.737 0-43.049 19.312-43.049 43.048v340.026c0 23.736 19.312 43.048 43.049 43.048h252.635c4.143 0 7.5-3.357 7.5-7.5s-3.357-7.5-7.5-7.5h-252.635c-15.466 0-28.049-12.582-28.049-28.048v-274.169h345.504c4.143 0 7.5-3.357 7.5-7.5s-3.357-7.5-7.5-7.5h-345.504v-50.858c0-15.466 12.583-28.048 28.049-28.048h9.838v22.467c0 10.3 8.38 18.68 18.68 18.68h10.235c10.3 0 18.68-8.38 18.68-18.68v-22.467h53.757v22.467c0 10.3 8.38 18.68 18.68 18.68h10.235c10.3 0 18.679-8.38 18.679-18.68v-22.467h53.758v22.467c0 10.3 8.379 18.68 18.679 18.68h10.235c10.3 0 18.68-8.38 18.68-18.68v-22.467h53.757v22.467c0 10.3 8.38 18.68 18.68 18.68h10.235c10.3 0 18.68-8.38 18.68-18.68v-22.467h9.838c15.467 0 28.05 12.582 28.05 28.048v50.858h-50.273c-4.143 0-7.5 3.357-7.5 7.5s3.357 7.5 7.5 7.5h50.273v200.208c-10.309-3.987-21.503-6.179-33.201-6.179-50.9 0-92.312 41.409-92.312 92.309 0 50.898 41.411 92.308 92.312 92.308s92.312-41.409 92.312-92.308c-.002-33.247-17.673-62.442-44.113-78.695zm-375.621-275.402h-10.235c-2.029 0-3.68-1.65-3.68-3.68v-43.236c0-2.029 1.65-3.68 3.68-3.68h10.235c2.029 0 3.68 1.65 3.68 3.68v13.211c0 .02-.003.039-.003.058s.003.038.003.058v29.909c0 2.029-1.651 3.68-3.68 3.68zm101.352 0h-10.235c-2.029 0-3.68-1.65-3.68-3.68v-43.236c0-2.029 1.65-3.68 3.68-3.68h10.235c2.028 0 3.679 1.65 3.679 3.68v13.192c0 .026-.004.051-.004.077s.004.051.004.077v29.889c-.001 2.03-1.651 3.681-3.679 3.681zm101.35 0h-10.235c-2.028 0-3.679-1.65-3.679-3.68v-29.889c0-.026.004-.051.004-.077s-.004-.051-.004-.077v-13.193c0-2.029 1.65-3.68 3.679-3.68h10.235c2.029 0 3.68 1.65 3.68 3.68v13.173c0 .032-.005.064-.005.097s.004.064.005.097v29.87c0 2.028-1.65 3.679-3.68 3.679zm105.032-3.68c0 2.029-1.65 3.68-3.68 3.68h-10.235c-2.029 0-3.68-1.65-3.68-3.68v-29.889c0-.026.004-.051.004-.077s-.004-.051-.004-.077v-13.193c0-2.029 1.65-3.68 3.68-3.68h10.235c2.029 0 3.68 1.65 3.68 3.68zm19.686 435.084c-42.63 0-77.312-34.68-77.312-77.308s34.682-77.309 77.312-77.309 77.312 34.681 77.312 77.309-34.682 77.308-77.312 77.308z"/><path d="m439.706 391.858-39.758 39.758-10.745-10.744c-2.929-2.929-7.678-2.928-10.606.001s-2.929 7.678.001 10.606l16.048 16.047c1.464 1.464 3.384 2.196 5.303 2.196s3.839-.732 5.304-2.196l45.062-45.061c2.929-2.93 2.929-7.678 0-10.607-2.931-2.926-7.679-2.928-10.609 0z"/></g></svg>