<?xml version="1.0" encoding="iso-8859-1"?>
<!-- Generator: Adobe Illustrator 16.0.0, SVG Export Plug-In . SVG Version: 6.00 Build 0)  -->
<!DOCTYPE svg PUBLIC "-//W3C//DTD SVG 1.1//EN" "http://www.w3.org/Graphics/SVG/1.1/DTD/svg11.dtd">
<svg version="1.1" id="Capa_1" xmlns="http://www.w3.org/2000/svg" xmlns:xlink="http://www.w3.org/1999/xlink" x="0px" y="0px"
	 width="955.4px" height="955.4px" viewBox="0 0 955.4 955.4" style="enable-background:new 0 0 955.4 955.4;" xml:space="preserve"
	>
<g>
	<g>
		<path d="M224.775,149.7V0.5c-10.4,1.5-20.2,6.3-27.7,13.8l-130.3,131.4c-7.4,7.4-12.1,17-13.6,27.3h148.3
			C214.275,173,224.775,162.6,224.775,149.7z"/>
		<path d="M52.675,739.5c0,26.699,21.7,48.4,48.4,48.4h248.7c-11.699-14.801-21.8-30.801-30.3-47.801
			c-10.399-20.9-18.1-43-22.8-65.699c-17.9-1.6-33.4-11.6-42.6-25.9h-75.9c-14.1,0-25.5-11.4-25.5-25.5s11.4-25.5,25.5-25.5h70.7
			c7.6-19.699,25.899-34.199,47.8-36.199c3.5-16.701,8.5-32.9,15-48.602h-133.6c-14.1,0-25.5-11.398-25.5-25.5
			c0-14.099,11.4-25.5,25.5-25.5h161.3c9.5-13.7,20.2-26.6,32.1-38.5c18.3-18.3,38.9-33.8,61.4-46.3h-254.8
			c-14.1,0-25.5-11.4-25.5-25.5c0-14.1,11.4-25.5,25.5-25.5h338.5c9.699-17.4,28.3-29.2,49.6-29.2c29.6,0,53.9,22.7,56.5,51.6
			c21.3,4.5,42,11.4,61.7,20.9V48.4c0-26.7-21.7-48.4-48.4-48.4h-361.2v149.7c0,40.4-32.899,73.3-73.3,73.3h-148.8V739.5z
			 M380.475,140.9h181.4c14.1,0,25.5,11.4,25.5,25.5s-11.4,25.5-25.5,25.5h-181.4c-14.1,0-25.5-11.4-25.5-25.5
			S366.475,140.9,380.475,140.9z"/>
		<path d="M891.774,944.4c14.601-14.6,14.601-38.4,0-53L785.075,784.699l-8.9-8.898l-8.9-8.9c25-33.6,41.801-73.701,47.4-117.301h16
			c17.5,0,31.8-14.199,31.8-31.799c0-17.5-14.2-31.801-31.8-31.801h-16c-9.1-71.6-48.6-133.9-105.2-173.5
			c-4.1-2.899-8.2-5.6-12.5-8.199c-4.1-2.5-8.3-4.9-12.5-7.2c-26.399-14.2-55.5-23.8-86.5-27.7v-16c0-17.5-14.2-31.8-31.8-31.8
			c-9.6,0-18.2,4.3-24.1,11c-4.801,5.6-7.7,12.8-7.7,20.7v16c-12.4,1.6-24.601,4.1-36.3,7.399c-50.9,14.4-95.2,44.5-127.4,84.8
			c-12.5,15.6-23.1,32.7-31.6,51c-10.601,22.801-17.9,47.5-21.2,73.4h-16c-9.8,0-18.5,4.4-24.4,11.4
			c-4.6,5.5-7.399,12.6-7.399,20.398c0,14.602,9.899,26.9,23.3,30.602c2.7,0.699,5.6,1.199,8.5,1.199h16
			c6.7,53,30.2,101,64.8,138.301c4,4.299,8.1,8.5,12.4,12.5c4.6,4.299,9.399,8.5,14.399,12.5
			c35.101,28.299,78.101,47.299,125,53.299v16c0,17.5,14.2,31.801,31.8,31.801c17.5,0,31.801-14.201,31.801-31.801v-16
			c43-5.5,82.699-21.9,116.1-46.4l8.9,8.9l9,9l106.8,106.801c7.3,7.299,16.899,11,26.5,11
			C874.975,955.4,884.475,951.699,891.774,944.4z M709.375,739.9c-4.601,5.299-9.4,10.4-14.601,15.199
			c-8.8,8.201-18.399,15.6-28.6,22.1c-4.1,2.602-8.4,5-12.7,7.301c-12.899,6.801-26.8,12.1-41.2,15.801
			C597.575,804,582.075,806,566.175,806s-31.3-2-46.1-5.699c-12.101-3-23.7-7.201-34.801-12.5c-54.699-26-94.899-77.701-105-139.5
			c-1.6-10-2.5-20.201-2.5-30.602c0-6.898,0.4-13.699,1.101-20.398c3.399-31.201,14.3-60.102,31-84.801c13.6-20.1,30.899-37.4,51-51
			c30-20.3,66.2-32.1,105.2-32.1c44.8,0,85.899,15.6,118.199,41.8c4.301,3.5,8.5,7.201,12.5,11c4.4,4.201,8.5,8.701,12.5,13.301
			c28.101,32.9,45,75.6,45,122.199C754.475,664.4,737.475,707.1,709.375,739.9z"/>
		<path d="M636.475,611.1c-6.8-6.799-15.6-12.6-26.2-17.299c-4.6-2-12.6-4.4-24.3-7.5V521c2.2,1.4,4.2,3,5.9,4.9
			c4.3,4.799,7.3,12.299,8.8,22.199c0.8,5.5,5.9,9.201,11.4,8.4l31.3-4.699c5.399-0.801,9.2-5.801,8.399-11.301
			c-3-21.699-12.3-39-27.399-51.6c-10-8.4-22.9-13.9-38.4-16.6v-5.7c0-5.5-4.5-10-10-10h-17.8c-5.5,0-10,4.5-10,10v5.7
			c-17.8,2.899-32,8.899-42.1,17.799c-17.5,15.301-26.301,35.4-26.301,59.9c0,13.801,3,26.301,9.101,37.301
			c6.1,11.199,14.899,20,26.2,26.299c11.1,6.201,22.199,10.801,33.1,13.701V702.6c-4.6-2.4-8.9-6-12.8-11
			c-4.8-6.199-8.4-16.699-10.5-31.199c-0.4-2.701-1.9-5.1-4.101-6.701c-2.199-1.6-5-2.199-7.699-1.699l-30.5,5.699
			c-5,0.9-8.5,5.5-8.101,10.5c1.2,17.301,5.8,32.301,13.601,44.602c7.8,12.398,17.399,21.5,28.5,27.199c8.5,4.4,19.1,7.699,31.6,9.9
			V771.6c0,5.5,4.5,10,10,10h17.9c5.5,0,10-4.5,10-10V750c19.6-2.699,36.1-11.1,49.1-24.801c15.1-15.898,22.8-35.898,22.8-59.5
			c0-10.799-1.8-20.898-5.5-30.299C648.774,626.301,643.375,618.1,636.475,611.1z M546.175,576.699c-5.2-2.5-9.1-5.398-11.7-8.6
			c-4.3-5.199-6.399-11.5-6.399-19.5s2.5-14.699,7.699-20.5c2.9-3.199,6.301-5.799,10.4-7.6V576.699z M595.774,695
			c-3.399,3.9-7.3,6.801-11.699,8.9V639.1c8.6,3.9,12.8,7.301,14.8,9.801c4,4.9,5.899,11.5,5.899,20.199
			C604.774,679.6,601.774,688,595.774,695z"/>
	</g>
</g>
<g>
</g>
<g>
</g>
<g>
</g>
<g>
</g>
<g>
</g>
<g>
</g>
<g>
</g>
<g>
</g>
<g>
</g>
<g>
</g>
<g>
</g>
<g>
</g>
<g>
</g>
<g>
</g>
<g>
</g>
</svg>
