<?xml version="1.0" encoding="iso-8859-1"?>
<!-- Generator: Adobe Illustrator 16.0.0, SVG Export Plug-In . SVG Version: 6.00 Build 0)  -->
<!DOCTYPE svg PUBLIC "-//W3C//DTD SVG 1.1//EN" "http://www.w3.org/Graphics/SVG/1.1/DTD/svg11.dtd">
<svg version="1.1" id="Capa_1" xmlns="http://www.w3.org/2000/svg" xmlns:xlink="http://www.w3.org/1999/xlink" x="0px" y="0px"
	 width="895.654px" height="895.654px" viewBox="0 0 895.654 895.654" style="enable-background:new 0 0 895.654 895.654;"
	 xml:space="preserve">
<g>
	<path d="M243.397,232.018v152.196h272.292V232.018c0-15.364-12.455-27.818-27.818-27.818h-30.93c-5.455,0-10.57,2.646-13.719,7.098
		l-45.627,64.477l-11.109-23.352l17.718-37.241c2.426-5.098-1.292-10.982-6.937-10.982h-35.445c-5.645,0-9.361,5.885-6.937,10.982
		l17.717,37.241l-10.93,22.975l-44.146-63.94c-3.138-4.545-8.308-7.258-13.831-7.258h-32.48
		C255.852,204.2,243.397,216.654,243.397,232.018z"/>
	<path d="M379.544,186.475c49.425,0,89.635-40.21,89.635-89.635c0-49.425-40.21-89.635-89.635-89.635
		c-49.426,0-89.636,40.21-89.636,89.635C289.909,146.265,330.119,186.475,379.544,186.475z"/>
	<path d="M668.777,357.74h189.164c20.828,0,37.713-16.885,37.713-37.714V112.267c0-20.829-16.885-37.714-37.713-37.714H682.904
		h-51.84H529.525c-8.965,0-13.348,10.935-6.863,17.126l108.402,103.517v124.83C631.064,340.855,647.949,357.74,668.777,357.74z"/>
	<path d="M40.94,489.191h16.256V849.43c0,21.549,18.329,39.02,40.94,39.02h110.875v-16.605c0-61.676,50.176-111.852,111.85-111.852
		h117.365c61.674,0,111.85,50.176,111.85,111.852v16.605h105.039c22.609,0,40.939-17.469,40.939-39.02V489.191h17.4
		c22.611,0,40.941-17.469,40.941-39.02v-1.939c0-21.549-18.33-39.019-40.941-39.019H515.689H243.397H40.94
		C18.33,409.213,0,426.682,0,448.232v1.939C0.001,471.723,18.33,489.191,40.94,489.191z M379.544,518.883
		c57.72,0,104.678,46.959,104.678,104.678c0,57.721-46.958,104.678-104.678,104.678c-57.721,0-104.679-46.957-104.679-104.678
		C274.866,565.842,321.824,518.883,379.544,518.883z"/>
</g>
<g>
</g>
<g>
</g>
<g>
</g>
<g>
</g>
<g>
</g>
<g>
</g>
<g>
</g>
<g>
</g>
<g>
</g>
<g>
</g>
<g>
</g>
<g>
</g>
<g>
</g>
<g>
</g>
<g>
</g>
</svg>
