<svg id="Capa_1" enable-background="new 0 0 512 512" height="512" viewBox="0 0 512 512" width="512" xmlns="http://www.w3.org/2000/svg"><g><g><path d="m430.589 425.336v-49.922c0-4.143-3.358-7.5-7.5-7.5s-7.5 3.357-7.5 7.5v49.333h-33.9c-5.455-12.621-24.127-40.983-81.746-40.983-2.838 0-6.124-1.65-8.669-3.088-12.666-7.153-27.742-10.986-43.646-11.122v-11.672c0-20.698 5.491-43.919 14.836-63.448 20.536 6.594 42.745 3.606 60.722-7.413 25.545-15.66 45.881-39.324 68.625-57.236 2.838-2.235 4.229-5.879 3.631-9.508-.615-3.733-3.195-6.832-6.734-8.087-31.019-11.004-75.673-15.802-107.975 3.725-22.939 13.866-37.639 41.272-29.966 68.341-2.007 3.917-3.866 7.988-5.573 12.173-2.088-12.684-5.527-25.199-10.378-37.739 15.779-24.327 7.633-52.945-7.065-69.708-23.288-26.556-64.952-34.337-96.175-32.791-3.682.184-7.005 2.365-8.672 5.694-1.605 3.206-1.387 7.004.571 9.912 5.317 7.895 9.984 16.061 15.534 25.915 2.032 3.609 6.604 4.888 10.215 2.855 3.609-2.032 4.888-6.605 2.855-10.215-3.264-5.797-7.107-12.622-11.293-19.379 37.686.138 63.615 14.131 75.688 27.898 12.081 13.777 13.8 29.557 10.114 41.968-9.106-16.645-21.89-32.343-36.999-45.21-3.153-2.685-7.886-2.307-10.573.848-2.686 3.153-2.306 7.887.847 10.572 14.431 12.29 26.505 27.365 34.779 43.244-13.569-1.194-26.318-7.557-35.339-17.979-3.194-3.689-6.307-7.76-9.517-12.444-2.342-3.417-7.01-4.291-10.427-1.947-3.417 2.341-4.289 7.009-1.947 10.426 3.533 5.155 6.983 9.664 10.55 13.784 13.056 15.081 32.515 23.957 53.381 23.335 7.581 20.058 11.285 40.03 11.285 60.878v44.215c-17.274 2.483-32.822 9.476-43.956 20.047-4.645 4.41-8.572 6.578-12.006 6.628-31.685.459-46.945 15-51.306 27.509h-28.949v-250.156c0-87.998 71.591-159.589 159.589-159.589s159.589 71.591 159.589 159.589v165.761c0 4.143 3.358 7.5 7.5 7.5s7.5-3.357 7.5-7.5v-165.761c0-96.269-78.32-174.589-174.589-174.589s-174.589 78.32-174.589 174.589v250.748c-12.548 2.63-22.001 13.779-22.001 27.097v31.881c0 15.265 12.42 27.685 27.686 27.685h337.809c15.266 0 27.686-12.42 27.686-27.686v-31.881c-.001-13.318-9.454-24.467-22.002-27.097zm-142.097-196.585c17.062-10.314 48.429-16.606 87.092-5.071-20.606 17.425-38.638 37.311-60.239 50.553-13.513 8.285-29.73 10.701-44.722 6.947 9.203-10.808 26.149-23.391 44.625-32.759 3.694-1.873 5.171-6.387 3.298-10.081-1.874-3.694-6.386-5.17-10.081-3.298-17.756 9.003-33.648 20.299-44.514 31.284 1.044-13.223 8.286-27.748 24.541-37.575zm-111.61 183.485c7.377-.106 14.612-3.623 22.117-10.748 19.711-18.715 58.151-22.857 84.898-7.752 4.144 2.341 9.713 5.027 16.046 5.027 40.665 0 57.819 15.546 64.755 25.983h-222.423c4.462-5.697 14.332-12.215 34.607-12.51zm260.708 72.078c0 6.995-5.691 12.686-12.686 12.686h-337.808c-6.995 0-12.686-5.69-12.686-12.686v-31.881c0-6.995 5.691-12.687 12.686-12.687h289.27c.008 0 .015.002.023.002.012 0 .024-.002.036-.002h48.48c6.995 0 12.686 5.691 12.686 12.687v31.881z"/></g></g></svg>