<?xml version="1.0" encoding="iso-8859-1"?>
<!-- Generator: Adobe Illustrator 16.0.0, SVG Export Plug-In . SVG Version: 6.00 Build 0)  -->
<!DOCTYPE svg PUBLIC "-//W3C//DTD SVG 1.1//EN" "http://www.w3.org/Graphics/SVG/1.1/DTD/svg11.dtd">
<svg version="1.1" id="Capa_1" xmlns="http://www.w3.org/2000/svg" xmlns:xlink="http://www.w3.org/1999/xlink" x="0px" y="0px"
	 width="950.001px" height="950px" viewBox="0 0 950.001 950" style="enable-background:new 0 0 950.001 950;" xml:space="preserve"
	>
<g>
	<path d="M103.052,853.647c16.495-94.58,50.286-214.984,83.363-256.258c-13.703,36.547-25.178,80.795-20.611,120.193
		c3.134,27.037,33.848,62.66,29.771,88.492c-1.661,10.525-7.778,22.924-13.576,36.725c-5.368,12.779,4.04,26.904,17.9,26.904
		h281.818c7.261,0,13.295-3.879,16.628-9.408c-11.19-15.648-20.624-32.48-28.187-50.359c-13.708-32.41-20.658-66.822-20.658-102.283
		c0-35.459,6.95-69.873,20.658-102.281c13.235-31.291,32.177-59.389,56.299-83.51c18.618-18.619,39.611-34.135,62.605-46.338
		c-1.369-2.305-2.761-4.598-4.198-6.861c-32.998-51.959-77.046-69.671-126.277-85.247c-22.236-7.035-45.954,5.14-53.723,27.46
		c-13.598,39.062-34.277,107.03-48.439,154.442c-4.634,15.516-26.603,15.516-31.237,0c-14.161-47.412-34.843-115.379-48.438-154.442
		c-7.769-22.32-31.486-34.495-53.723-27.46c-49.229,15.575-93.277,33.288-126.276,85.247
		C59.71,526.991,45.734,599.213,30.897,667.415C17.967,726.85,7.972,787.17,0.161,847.84c-1.493,11.598,7.563,21.863,19.255,21.863
		h64.523C93.365,869.704,101.433,862.932,103.052,853.647z"/>
	<path d="M340.809,4.598c-56.064,0-110.591,32.452-145.57,77.603c-38.774,50.05-33.171,109.434-48.166,167.769
		c-5.593,21.758-12.174,43.422-20.076,64.463c38.691,17.096,79.52,2.643,107.236-11.899c28.556,24.756,65.816,66.993,106.576,66.993
		s78.021-42.237,106.576-66.993c27.716,14.542,68.545,28.995,107.237,11.899c-7.902-21.042-14.483-42.705-20.076-64.463
		c-14.995-58.335-9.391-117.719-48.166-167.769C451.4,37.05,396.875,4.598,340.809,4.598z"/>
	<path d="M712.252,469.903c-40.231,0-78.119,10.007-111.335,27.644c-75.196,39.932-126.415,119.031-126.415,210.105
		c0,29.561,5.411,57.854,15.269,83.963c33.934,89.867,120.735,153.787,222.48,153.787c131.305,0,237.749-106.445,237.749-237.75
		C950.001,576.346,843.557,469.903,712.252,469.903z M848.382,643.241L676.958,814.665l-6.017,6.018
		c-0.387,0.387-0.786,0.752-1.191,1.109c-4.707,4.137-10.594,6.213-16.485,6.213c-6.397,0-12.796-2.439-17.678-7.322l-59.464-59.465
		c-9.763-9.764-9.763-25.594,0-35.355s25.593-9.762,35.354,0l41.786,41.787l14.121-14.121l145.642-145.643
		c9.765-9.764,25.593-9.764,35.355,0S858.145,633.479,848.382,643.241z"/>
</g>
<g>
</g>
<g>
</g>
<g>
</g>
<g>
</g>
<g>
</g>
<g>
</g>
<g>
</g>
<g>
</g>
<g>
</g>
<g>
</g>
<g>
</g>
<g>
</g>
<g>
</g>
<g>
</g>
<g>
</g>
</svg>
